PathFileType	4	(X/Y/Z)	Patient4_TMGait_0pt6_01_left_14.trc.trc
DataRate	CameraRate	NumFrames	NumMarkers	Units	OrigDataRate	OrigDataStartFrame	OrigNumFrames
82.352941176471	82.352941176471	6	33	mm	82.352941176471	1	       141
Frame#	Time	Sacral			L.Shoulder			Chest			R.Shoulder			Neck			R.ASIS			L.ASIS			R.Thigh.Superior			R.Thigh.Lateral			R.Thigh.Inferior			R.Patella			L.Thigh.Superior			L.Thigh.Lateral			L.Thigh.Inferior			L.Patella			L.Shank.Superior			L.Shank.Lateral			L.Shank.Inferior			R.Shank.Superior			R.Shank.Lateral			R.Shank.Inferior			R.Heel			R.Midfoot.Superior			R.Midfoot.Lateral			R.Toe			L.Heel			L.Midfoot.Lateral			L.Midfoot.Superior			L.Toe			L.Elbow			L.Wrist			R.Elbow			R.Wrist			
		X1	Y1	Z1	X2	Y2	Z2	X3	Y3	Z3	X4	Y4	Z4	X5	Y5	Z5	X6	Y6	Z6	X7	Y7	Z7	X8	Y8	Z8	X9	Y9	Z9	X10	Y10	Z10	X11	Y11	Z11	X12	Y12	Z12	X13	Y13	Z13	X14	Y14	Z14	X15	Y15	Z15	X16	Y16	Z16	X17	Y17	Z17	X18	Y18	Z18	X19	Y19	Z19	X20	Y20	Z20	X21	Y21	Z21	X22	Y22	Z22	X23	Y23	Z23	X24	Y24	Z24	X25	Y25	Z25	X26	Y26	Z26	X27	Y27	Z27	X28	Y28	Z28	X29	Y29	Z29	X30	Y30	Z30	X31	Y31	Z31	X32	Y32	Z32	X33	Y33	Z33	

1	17.010000000000	648.894379696382	1007.355801937092	507.246900268191	797.089489351503	1440.411402467805	324.965431035383	916.591096788416	1373.260577353230	474.515961524853	847.405757657689	1438.361500882439	656.977408021197	788.107607662011	1497.991254142390	478.592882006611	880.670620242005	945.929251386664	612.344260390692	853.971567906365	968.176037010797	339.896679111748	910.955309458962	740.088459181702	577.484462324955	826.616360422874	633.381984637498	637.053191307702	896.292584686941	580.342306529019	552.553137022335	891.987940747360	493.404183390599	555.326694334181	943.615634462085	786.952083809029	370.839474279247	903.419168815497	659.751036686717	291.748134510226	1009.165408577000	601.014875635753	351.643869300363	1027.411835447583	513.996296941781	344.341611396404	970.723011244641	441.109751354129	338.054760927317	837.040810607648	374.706263752895	293.519564798573	850.482502477996	244.356591175899	347.461731040010	865.253027999937	404.171432703003	559.608813869514	795.963999673857	298.888908199010	618.662217664530	837.187266617829	206.580372038800	551.689956391817	703.202246284418	41.937459626847	515.643901948620	873.522096447740	96.549833553565	555.468251122907	784.978126064395	36.092571911462	592.272982237462	993.330068464064	43.974985167341	585.245976612677	676.205280409546	143.448116661547	391.299788742356	738.063412552455	113.600174680572	306.801746973570	840.839504874227	140.036687838126	324.836881933564	936.870803542771	45.809526748644	288.122648348709	768.030019812971	1080.437898732352	221.712544979624	819.029316022459	826.377977698762	212.194984482944	940.921954415954	1098.412591464498	767.464364216482	1176.268401162406	991.740380017491	734.681307307578	
2	17.022142857143	647.554155265305	1007.605353143070	508.352598866074	795.659501525831	1440.229638023099	325.739081986223	915.848545337498	1372.846258502985	474.646810946115	847.867073177174	1438.194904692826	657.455929932668	788.001861932453	1497.858698548434	479.710166519744	879.652177508350	945.557954233686	612.488676039185	852.153140615775	968.287196197117	340.108165417029	908.199229415685	739.367113065318	577.362817269469	823.257060043272	633.088821508941	637.412108190834	892.188944389896	579.638846690905	552.836285190835	886.957688548100	492.748724711875	555.566798074325	942.155706402101	787.779158044387	371.350544373603	902.523484118662	660.398597053584	292.132213833779	1007.794149464970	601.970463231425	352.823259919337	1027.498137748487	516.852153657894	344.999563124425	974.987622187532	443.317989825988	337.405909493216	846.902777424148	369.008488680599	292.329783049301	869.513004329696	240.109017663266	344.948309456457	859.919566959840	403.833973248107	559.957761635206	789.847633910559	298.732950028526	618.859113065409	830.359341201911	206.197356535396	551.747091912894	695.545353328425	41.929509632047	515.620254655270	865.863732867005	96.447763273735	555.457803530594	777.267296675490	36.097007783438	592.243703257505	985.639898575777	43.717995684301	585.306017756583	704.391926680686	127.570940217032	388.554324969810	766.917875359822	103.220660158546	303.364401223434	866.979870217032	136.359010715436	321.254343496794	968.257145254914	50.140170999655	282.894359295937	758.897239349001	1081.193020675877	222.851788166536	801.210844307749	826.049438682348	214.866574902496	948.176228932125	1101.278792633226	767.642329383947	1187.680502864342	1010.526021316574	732.081825932610	
3	17.034285714286	646.242878152268	1007.841217137937	509.429023322954	794.267315853831	1440.065960527769	326.502799867661	915.123834305894	1372.432014274493	474.773237139155	848.312505260258	1438.004740691240	657.921997448318	787.921944422919	1497.721729455170	480.830462751261	878.668409510195	945.194568170963	612.622531108112	850.369881279437	968.361690180928	340.295992065347	905.472411914974	738.648509487534	577.286460017515	819.878609332021	632.806396602861	637.772962459970	888.084355667511	578.935058579505	553.147647853654	881.931905524525	492.106069016188	555.830879146693	940.603334089306	788.455673728939	371.824447836939	901.491118684005	660.958540370316	292.418130280496	1006.241511396980	602.785136215570	353.938383281175	1027.404154540146	519.611524228450	345.599571397854	979.062628115459	445.492965108589	336.781409127962	856.748806501309	363.402237456614	291.061303945870	888.338751444864	236.114488283768	342.551939141001	854.576368234190	403.495995702337	560.309002108923	783.748540128590	298.586126122661	619.064005720025	823.579761357288	205.830886109331	551.820219352313	687.962686690124	41.924654740469	515.601892671667	858.281217329284	96.344854854586	555.449592860434	769.634797015739	36.098774986712	592.209686160023	978.026919471622	43.459533642889	585.366018265725	732.405875337424	112.220406995064	385.795014162446	795.677784378988	93.258860839831	300.051316465574	892.914832698123	132.999972485987	317.898136548340	999.331341100495	54.757837682859	278.191771668670	749.838282474955	1082.019026530309	223.966122299926	783.699064287374	825.854551324422	217.507268475827	955.330786496230	1104.110731056637	767.779867817255	1198.742775162225	1029.061461203020	729.508060501169	
4	17.046428571429	644.995899615436	1008.047341357702	510.444386719510	792.937742068938	1439.935489185021	327.240681904239	914.428146873327	1372.017686711932	474.882085443146	848.727195248687	1437.770051621662	658.355603828562	787.878442524454	1497.574070808136	481.943571532330	877.751846541345	944.843377051458	612.720987781785	848.650617423949	968.367838863150	340.427707852180	902.788467692474	737.931198732833	577.280047308952	816.449334490350	632.546563481497	638.128595238666	883.956476202821	578.228793912610	553.501056009071	876.889699490717	491.484200867861	556.132707865416	938.879696944135	788.852422950540	372.212920677100	900.192239659361	661.343287688132	292.525318903208	1004.357781815593	603.328466341154	354.915975163076	1026.971129095279	522.180230392867	346.092019771102	982.769941619105	447.605590017775	336.193974855855	866.527122757349	357.988855283887	289.674330287507	906.749518895079	232.621331219553	340.369210102806	849.186967872866	403.159524561974	560.662576621532	777.645660579985	298.461230801464	619.284443719185	816.850832708480	205.497494972379	551.922797435509	680.473307729642	41.928536034469	515.592403958402	850.797238266445	96.242118975555	555.446922318135	762.103335017712	36.096118489901	592.167301837051	970.513532919867	43.199782459113	585.425390118130	760.055634020027	97.923651374482	383.050558107094	824.200091979026	84.122123820772	296.994493073016	918.427473628680	130.256113543982	314.959034495799	1029.760354669322	59.895411532638	274.436652842988	740.906189886894	1082.987676683460	225.036829559981	766.739353533685	825.920574617151	220.092446943127	962.301039797476	1106.889963204797	767.830664193618	1209.128854115361	1047.150559262087	726.979969616799	
5	17.058571428571	643.843441492160	1008.211582173250	511.372247435081	791.686679870905	1439.849992556214	327.936374426861	913.768142964493	1371.604142717361	474.959746831790	849.099175471240	1437.476292001848	658.737590177044	787.866794555497	1497.411223257483	483.027713110627	876.929521922474	944.507409411880	612.759115351512	847.015487949606	968.283214814432	340.476816026299	900.149702884196	737.212665928847	577.355902226588	812.937309571917	632.320032974478	638.469786512612	879.775004770465	577.518098300929	553.900646613830	871.801460508935	490.888571746286	556.479857465800	936.920884014984	788.870654732171	372.476927954030	898.530830257169	661.489330544605	292.386831251752	1002.039119154230	603.504269817689	355.686984536530	1026.074283724928	524.484248498498	346.440233243222	985.970625324366	449.637107505858	335.651714127412	876.186383579084	352.863257025925	288.151073688116	924.571773811619	229.836274939634	338.472582436787	843.710539004370	402.829409593973	561.018090595795	771.502509521872	298.370897719083	619.525075183397	810.155635779385	205.211024756054	552.065006231830	673.071523088624	41.945493184057	515.593761826852	843.409679711704	96.141787488930	555.454121122228	754.669624618034	36.087932699370	592.114410448188	963.095923942727	42.939847489062	585.483814404959	787.171898605581	85.121178434022	380.355743616993	852.357776074707	76.137743978065	294.310437074449	943.343348454971	128.360171186194	312.583792098191	1059.276801874708	65.713737832769	271.965765653371	732.137593982364	1084.157275731053	226.053102731825	750.501077904706	826.346384508444	222.602034047097	969.026548221866	1109.609490763749	767.755906086177	1218.590173713288	1064.653191367033	724.509046643720	
6	17.070714285714	642.809713805709	1008.326091779059	512.192237056818	790.520580936823	1439.816028757990	328.572927132863	913.145914514558	1371.193814447223	474.992511606516	849.419961558957	1437.117607810580	659.050278078667	787.866795230584	1497.230688160271	484.049511682564	876.221191660477	944.187852821649	612.713450640175	845.476712337583	968.097541433680	340.424593438214	897.551997102811	736.490511480940	577.510446995073	809.321033919721	632.135386785403	638.784499660039	875.513639406924	576.802764129965	554.338625558275	866.641763877042	490.321975583139	556.870943435417	934.691962671476	788.455389540710	372.589350067041	896.459901804254	661.363130771204	291.960899610944	999.247420825908	603.261511108777	356.193630727354	1024.641367532935	526.472243115207	346.625256525828	988.575257076575	451.575433755673	335.157202566386	885.655414379082	348.112152500275	286.505784398325	941.649042871151	227.902049007988	336.903424432618	838.115560956077	402.512498608499	561.373058130426	765.281905181681	298.326579996442	619.786196069600	803.469956809822	204.981370165979	552.251763938987	665.737961100159	41.978568799806	515.606404730631	836.102659854323	96.047417699422	555.476225835442	747.315540194752	36.074066981067	592.051102646275	955.755522175903	42.682190908992	585.540944414583	813.566552082558	74.137906757765	377.758282918544	879.985620960874	69.527622411985	292.091466173185	967.493165414357	127.452678413485	310.857319179873	1087.640482116091	72.262918491665	270.978370670796	723.565341175538	1085.562855777951	227.010912096519	735.088941573688	827.189354011435	225.018134365213	975.464271474257	1112.269712602403	767.528535088330	1226.965543402851	1081.468623105211	722.101941721163	
